<svg xmlns="http://www.w3.org/2000/svg" width="80" height="80" viewBox="0 0 80 80">
  <g id="Group_1" data-name="Group 1" transform="translate(-190 -113)">
    <rect id="Rectangle_1" data-name="Rectangle 1" width="80" height="80" rx="25" transform="translate(190 113)" fill="#287e75"/>
    <path id="Rectangle_2" data-name="Rectangle 2" d="M0,0H15A25,25,0,0,1,40,25V55A25,25,0,0,1,15,80H0a0,0,0,0,1,0,0V0A0,0,0,0,1,0,0Z" transform="translate(230 113)" fill="#1b6e65"/>
    <circle id="Ellipse_1" data-name="Ellipse 1" cx="17.5" cy="17.5" r="17.5" transform="translate(212 135)" fill="#fff"/>
    <circle id="Ellipse_2" data-name="Ellipse 2" cx="14.5" cy="14.5" r="14.5" transform="translate(215 138)" fill="#002626"/>
    <circle id="Ellipse_3" data-name="Ellipse 3" cx="7.5" cy="7.5" r="7.5" transform="translate(222 145)" fill="#0d5757"/>
  </g>
</svg>
